<?xml version="1.0" encoding="UTF-8"?>
<svg data-bbox="0.132 0.132 49.768 9.577" xmlns="http://www.w3.org/2000/svg" width="2500" viewBox="0.132 0.132 49.768 9.577" height="492" data-type="color">
    <g>
        <path d="M13.467 6.509v.714h1.958v-.741h-.45V4.075l1.032 3.122.027.026h1.27v-.026l1.058-3.122v2.407h-.45v.741h2.143v-.741h-.396V3.995h.396v-.741h-2.46l-.027.027-.793 2.778-.82-2.778v-.027h-2.489v.741h.425v2.487h-.424zm11.748-.582V5.9H24.13v.582h-1.508v-.926h.397v.424h.873V4.472h-.873v.396h-.397v-.873h1.508v.529h1.085v-1.27H20.77v.741h.45v2.487h-.45v.741h4.445v-.026z" fill="#76787b" data-color="1"/>
        <path d="M30.321 6.482a1.5 1.5 0 0 1-.132-.37c-.132-.397-.265-.767-.847-.82.635-.08.98-.424.98-.953a.905.905 0 0 0-.556-.9 3.4 3.4 0 0 0-1.244-.185H25.93v.741h.45V6.51h-.45v.714h2.381v-.74h-.502v-.82h.37a.5.5 0 0 1 .344.105 3.3 3.3 0 0 1 .37.688c.053.159.106.317.16.45a.9.9 0 0 0 .132.317v.027h1.613v-.768zM28.945 4.42c0 .344-.238.529-.714.529h-.45v-.953h.45c.37 0 .714.053.714.424" fill="#76787b" data-color="1"/>
        <path d="M33.681 6.509v-.027h-.529V3.995h.529v-.741h-2.46v.741h.529v2.487h-.529v.741h2.459v-.026zm1.641.714h2.593v-.741h-.609V3.995h.556v.741h1.164V3.254h-4.842v1.482h1.164v-.741h.556v2.487h-.609v.741z" fill="#76787b" data-color="1"/>
        <path d="M43.71 3.73a3.45 3.45 0 0 0-3.758 0 1.9 1.9 0 0 0-.688 1.509 1.82 1.82 0 0 0 .688 1.508 3.45 3.45 0 0 0 3.757 0 1.9 1.9 0 0 0 .688-1.508 1.69 1.69 0 0 0-.688-1.508zm-1.88.186c.953 0 1.085.847 1.085 1.323s-.132 1.323-1.084 1.323-1.085-.847-1.085-1.323.132-1.323 1.085-1.323zm7.647 2.566h-.397a1.5 1.5 0 0 1-.132-.37c-.132-.397-.265-.767-.847-.82.635-.08.98-.424.98-.953a.905.905 0 0 0-.556-.9 3.4 3.4 0 0 0-1.244-.185h-2.593v.741h.45V6.51h-.45v.714h2.381v-.74h-.502v-.82h.37a.5.5 0 0 1 .344.105 3.3 3.3 0 0 1 .37.688c.053.159.106.317.16.45a1.3 1.3 0 0 0 .131.317v.027h1.614v-.053zm-1.8-2.063c0 .344-.237.529-.713.529h-.45v-.953h.45c.37 0 .714.053.714.424zm1.853-1.112a.33.33 0 0 1 .238.106.34.34 0 0 1 .106.238.33.33 0 0 1-.106.238.34.34 0 0 1-.238.106.33.33 0 0 1-.238-.106.34.34 0 0 1-.106-.238.365.365 0 0 1 .344-.344m.37.318a.37.37 0 1 0-.74 0 .37.37 0 1 0 .74 0m-.264-.08a.06.06 0 0 1-.053.053h-.159V3.44h.053c.053 0 .08 0 .08.026q.079.04.079.08zm-.265-.132v.424h.08v-.16h.053a.1.1 0 0 1 .079.027c.026.027.026.053.026.106v.053h.08v-.106c0-.026 0-.053-.027-.053a.2.2 0 0 0-.08-.053c.027 0 .054 0 .054-.026s.053-.053.053-.08a.14.14 0 0 0-.053-.105c-.027 0-.053-.027-.106-.027z" fill="#76787b" data-color="1"/>
        <path fill="#b20838" d="m11.483 5.133-.053-.026s-.212.846-.794.793v-.026a1.4 1.4 0 0 0 .027-.53c-.027-.343-.45-.634-.688-.793s-.106-.503-.953-.662C9.525 1.667 6.906 1.64 6.906 1.64 4.18 1.535 3.546.132 3.546.132l-.08.08s.106 1.905 2.514 2.54a3.38 3.38 0 0 1-2.488-.873l-.052.052s.317 1.747 2.46 2.223c0 0-1.534.106-2.222-.794l-.08.08s.503 1.508 2.434 2.01c0 0 1.509.397 1.032 2.408a.08.08 0 0 1 .053.027l-1.667-.9-.079.212-.952-.609c.079-.132.132-.238.132-.238l-.424-.132c-.9 1.56-2.38.397-2.38.397a1.55 1.55 0 0 1-1.244.45c.9-.16 1.137-.662 1.137-.662l.027-.053a1.3 1.3 0 0 0 .317.053c.635 0 .768-.688.768-.688a1.09 1.09 0 0 1 .846-.714c.106-.027.477-.053.477-.053l-.027-.053s-.317-.53-1.72-.82c0 0-1.137-.186-1.64-.82l-.053.079a2 2 0 0 0 .185.212 4.6 4.6 0 0 0 2.25 1.11l.131.027c-.687.159-.846 1.164-.846 1.164-.133.583-.688.292-.688.292l-.132-.053s-.344.926-1.244.82l-.159.37a1.94 1.94 0 0 0 1.614-.37c1.403.794 2.196.264 2.54-.159l1.217.767.027-.158L7.726 8.73a2.3 2.3 0 0 1 .185.45l.185-.211 1.164.74v-.635l-.767-.45.291-.317.212-.212.529.186.212-.08a3 3 0 0 1 .238-.635l.211-.211s.053-.08.133-.186l.106-.026.105-.476c.344-.08 1.112-.318.953-1.535zm-2.09 2.064s-.053-.053.026-.133c0 0 .132-.079-.37-.317 0 0 .555.132.608.37.053.239-.106.265-.264.08m.132-.741s-1.19-.185-.74-1.535h.052s.053.926.74.82a.61.61 0 0 1-.052.715" data-color="2"/>
    </g>
</svg>
